<?xml version="1.0" standalone="no"?>
<!DOCTYPE svg PUBLIC "-//W3C//DTD SVG 20010904//EN"
 "http://www.w3.org/TR/2001/REC-SVG-20010904/DTD/svg10.dtd">
<svg version="1.0" xmlns="http://www.w3.org/2000/svg"
 width="1017.000000pt" height="1017.000000pt" viewBox="0 0 1017.000000 1017.000000"
 preserveAspectRatio="xMidYMid meet">
<metadata>
Created by potrace 1.14, written by Peter Selinger 2001-2017
</metadata>
<g transform="translate(0.000000,1017.000000) scale(0.100000,-0.100000)"
fill="#000000" stroke="none">
<path d="M5035 9942 c-11 -1 -51 -13 -90 -24 -156 -48 -272 -146 -344 -290
-42 -85 -43 -87 -69 -76 -42 16 -171 17 -227 1 -138 -41 -229 -132 -325 -328
-79 -160 -117 -281 -164 -515 -21 -108 -60 -212 -121 -325 -23 -44 -55 -105
-71 -135 -16 -30 -31 -57 -34 -60 -3 -3 -18 -25 -35 -48 -60 -90 -155 -157
-430 -308 -104 -56 -488 -303 -570 -366 -5 -4 -113 -84 -239 -178 -500 -373
-941 -765 -1171 -1043 -16 -20 -46 -55 -65 -77 -19 -23 -67 -88 -107 -144 -40
-55 -77 -106 -81 -111 -5 -6 -39 -58 -76 -115 -206 -316 -370 -651 -477 -972
-41 -123 -129 -456 -129 -489 0 -10 -4 -21 -10 -24 -6 -4 -7 1 -4 12 5 15 4
15 -4 3 -6 -8 -9 -17 -6 -21 9 -16 11 -68 1 -66 -5 1 -12 -4 -15 -12 -3 -10 0
-11 9 -5 12 7 12 5 0 -9 -10 -13 -10 -17 -1 -17 9 0 10 -3 1 -14 -6 -7 -9 -20
-5 -29 8 -22 -12 -30 -30 -11 -9 8 -16 14 -17 12 -7 -31 -6 -39 6 -34 9 3 12
0 8 -10 -4 -10 -9 -11 -17 -5 -6 6 -21 8 -31 6 -11 -2 -22 -4 -24 -4 -2 -1 5
-9 17 -19 17 -15 19 -21 9 -31 -9 -9 -7 -13 11 -17 12 -4 22 -11 22 -16 0 -6
-11 -3 -24 5 -23 15 -36 13 -36 -5 0 -5 4 -6 10 -3 5 3 10 1 10 -4 0 -14 -17
-14 -25 0 -4 5 1 19 11 31 18 19 18 20 -5 39 -13 10 -18 19 -12 19 6 0 8 8 5
18 -4 13 -3 14 4 4 5 -8 13 -14 17 -14 9 0 25 23 25 37 0 5 -5 4 -12 -3 -7 -7
-17 -12 -23 -12 -5 0 -2 5 8 11 12 7 16 17 11 31 -4 14 -2 18 5 14 6 -4 11
-14 11 -22 0 -8 5 -14 10 -14 13 0 13 17 -1 25 -6 5 -4 12 8 22 10 8 11 11 3
7 -13 -7 -13 -5 -1 9 7 9 17 14 22 11 5 -3 6 3 3 13 -4 14 -3 15 4 4 7 -9 12
-10 16 -2 4 6 2 11 -4 11 -6 0 -8 5 -5 10 4 6 11 7 17 4 6 -4 5 2 -2 15 -6 12
-15 19 -21 16 -5 -4 -9 -1 -9 4 0 6 4 11 9 11 5 0 12 8 15 17 6 15 4 14 -14
-2 -11 -10 -19 -24 -16 -31 3 -7 -2 -15 -10 -18 -9 -3 -13 -10 -10 -15 3 -5
-1 -12 -10 -15 -8 -3 -12 -10 -9 -16 3 -5 1 -10 -4 -10 -6 0 -11 -7 -11 -15 0
-8 -5 -15 -12 -15 -6 0 -8 -3 -5 -7 4 -3 2 -12 -4 -20 -6 -7 -8 -13 -4 -13 5
0 1 -8 -7 -17 -8 -10 -14 -25 -13 -33 0 -8 -3 -17 -7 -20 -7 -5 -16 -40 -23
-88 -3 -19 0 -22 16 -17 11 4 19 2 19 -5 0 -6 -4 -9 -9 -5 -5 3 -12 1 -16 -5
-4 -6 -12 -7 -18 -4 -7 4 -8 3 -4 -2 5 -5 18 -9 30 -9 13 0 23 -7 25 -17 2
-10 -1 -18 -7 -18 -6 0 -8 7 -5 15 4 8 1 15 -5 15 -6 0 -11 -7 -11 -15 0 -8
-5 -15 -11 -15 -5 0 -7 5 -3 12 4 7 3 8 -5 4 -13 -8 15 -65 36 -73 7 -3 10 -9
7 -14 -3 -5 2 -9 11 -9 8 0 23 -4 33 -9 9 -6 28 -12 42 -15 23 -5 25 -10 26
-58 0 -29 3 -100 7 -158 6 -95 11 -130 32 -265 10 -66 54 -245 81 -330 148
-474 424 -888 834 -1255 40 -36 78 -70 84 -75 67 -62 376 -285 523 -376 63
-40 314 -189 317 -189 1 0 65 -34 142 -76 131 -71 458 -235 569 -284 260 -116
791 -297 983 -335 9 -1 44 -10 77 -18 68 -18 241 -54 299 -63 21 -3 48 -8 60
-10 94 -18 305 -48 431 -59 33 -3 78 -8 100 -10 239 -26 880 -25 1105 0 19 2
62 6 95 10 137 13 356 42 455 60 14 3 41 7 60 10 19 3 71 13 115 21 44 9 94
18 110 20 17 3 57 12 90 21 33 8 67 16 75 18 35 7 153 39 260 70 505 148 1049
407 1497 711 142 97 335 240 413 309 19 16 57 50 85 74 98 87 301 297 376 391
185 231 366 531 464 770 14 36 32 79 40 95 28 64 88 246 120 370 29 110 43
178 81 395 25 149 25 660 -1 760 -2 8 -7 38 -11 65 -26 209 -120 502 -235 736
-232 473 -601 911 -1168 1389 -105 88 -414 319 -490 365 -9 6 -18 12 -21 16
-3 3 -88 60 -190 128 -647 431 -1076 842 -1241 1189 -37 77 -74 195 -84 267
-42 313 -94 506 -187 692 -68 136 -212 247 -356 273 -182 33 -282 0 -418 -135
-44 -44 -90 -93 -102 -110 -18 -26 -21 -27 -22 -10 -2 64 -43 287 -67 360 -53
167 -159 278 -313 326 -68 21 -171 37 -205 31z m-4899 -5698 c-20 -26 -36 -42
-36 -36 0 6 5 14 10 17 6 4 7 11 4 17 -4 7 -2 8 4 4 11 -6 16 6 10 19 -4 5 36
35 40 30 2 -2 -12 -25 -32 -51z m-46 -74 c0 -5 -5 -10 -11 -10 -5 0 -7 5 -4
10 3 6 8 10 11 10 2 0 4 -4 4 -10z m67 -82 c-3 -8 -6 -5 -6 6 -1 11 2 17 5 13
3 -3 4 -12 1 -19z m-23 -7 c10 -11 16 -26 13 -33 -3 -8 -6 -6 -6 6 -1 16 -3
17 -18 5 -16 -13 -17 -12 -5 3 11 14 10 18 -5 27 -10 6 -13 11 -7 11 6 0 19
-9 28 -19z m-76 -30 c-16 -27 -28 -27 -23 -1 6 31 16 43 27 32 6 -6 5 -17 -4
-31z m89 -53 c-3 -7 -5 -2 -5 12 0 14 2 19 5 13 2 -7 2 -19 0 -25z m-46 -6
c-8 -15 -8 -21 2 -25 6 -2 0 -4 -14 -4 -26 0 -26 0 -8 18 11 11 19 24 19 31 0
6 3 9 6 6 3 -4 1 -15 -5 -26z m-21 4 c0 -3 -4 -8 -10 -11 -5 -3 -10 -1 -10 4
0 6 5 11 10 11 6 0 10 -2 10 -4z m50 -6 c0 -5 -5 -10 -11 -10 -5 0 -7 5 -4 10
3 6 8 10 11 10 2 0 4 -4 4 -10z m31 -27 c13 -16 12 -17 -3 -4 -10 7 -18 15
-18 17 0 8 8 3 21 -13z m-66 -33 c4 -11 11 -18 16 -15 5 4 9 4 9 1 0 -17 -20
-12 -34 9 -9 14 -12 25 -7 25 5 0 13 -9 16 -20z m50 10 c-3 -5 -12 -10 -18
-10 -7 0 -6 4 3 10 19 12 23 12 15 0z m-61 -37 c4 -10 4 -14 0 -10 -4 4 -16
-1 -28 -10 -20 -18 -20 -18 0 9 23 33 20 32 28 11z m-37 1 c-3 -3 -12 -4 -19
-1 -8 3 -5 6 6 6 11 1 17 -2 13 -5z m78 -14 c-3 -5 -12 -10 -18 -10 -7 0 -6 4
3 10 19 12 23 12 15 0z m-38 -25 c0 -8 -4 -12 -9 -9 -10 7 -10 24 0 24 5 0 9
-7 9 -15z m46 -5 c-3 -12 -8 -19 -11 -16 -5 6 5 36 12 36 2 0 2 -9 -1 -20z"/>
<path d="M46 4063 c-6 -14 -5 -15 5 -6 7 7 10 15 7 18 -3 3 -9 -2 -12 -12z"/>
<path d="M195 4369 c-4 -6 -5 -12 -2 -15 2 -3 7 2 10 11 7 17 1 20 -8 4z"/>
<path d="M143 4224 c4 -4 2 -13 -4 -21 -9 -10 -7 -19 6 -39 9 -14 19 -23 22
-20 4 3 -2 15 -13 27 -18 20 -18 21 -1 34 17 12 17 13 0 19 -10 4 -14 4 -10 0z"/>
<path d="M150 4190 c0 -5 5 -10 10 -10 6 0 10 5 10 10 0 6 -4 10 -10 10 -5 0
-10 -4 -10 -10z"/>
</g>
</svg>
